<svg width="460" height="402" viewBox="0 0 460 402" fill="none" xmlns="http://www.w3.org/2000/svg">
<rect width="460" height="402" fill="#5530E7"/>
<path d="M138 204.132C138.119 230.034 162.267 251.261 191.931 251.261C221.668 251.261 245.86 230.12 245.86 204.132V197.478C245.86 186.778 255.823 178.071 268.067 178.071C280.314 178.071 290.275 186.778 290.275 197.478C290.275 200.541 293.116 203.023 296.62 203.023H315.655C319.161 203.023 322 200.541 322 197.478C322 171.491 297.808 150.348 268.069 150.348C238.332 150.348 214.138 171.491 214.138 197.478V204.132C214.138 214.834 204.176 223.538 191.933 223.538C179.688 223.538 169.725 214.834 169.725 204.132C169.725 201.07 166.884 198.587 163.38 198.587H144.345C140.841 198.588 138 201.07 138 204.132Z" fill="white"/>
</svg>
