<?xml version="1.0" standalone="no"?>
<!DOCTYPE svg PUBLIC "-//W3C//DTD SVG 1.0//EN" "http://www.w3.org/TR/2001/REC-SVG-20010904/DTD/svg10.dtd">
<svg xmlns="http://www.w3.org/2000/svg" xmlns:xlink="http://www.w3.org/1999/xlink" id="body_1" width="60" height="52">

<g transform="matrix(0.12935326 0 0 0.12935326 0.24875669 -0)">
    <path d="M0 0L460 0L460 402L0 402z" stroke="none" fill="none" fill-rule="nonzero" />
    <path d="M138 204.132C 138.119 230.034 162.267 251.261 191.931 251.261C 221.668 251.261 245.86 230.12 245.86 204.132L245.86 204.132L245.86 197.478C 245.86 186.778 255.823 178.071 268.067 178.071C 280.314 178.071 290.275 186.778 290.275 197.478C 290.275 200.541 293.116 203.023 296.62 203.023L296.62 203.023L315.655 203.023C 319.161 203.023 322 200.541 322 197.478C 322 171.491 297.808 150.348 268.069 150.348C 238.332 150.348 214.138 171.491 214.138 197.478L214.138 197.478L214.138 204.132C 214.138 214.834 204.176 223.538 191.933 223.538C 179.688 223.538 169.725 214.834 169.725 204.132C 169.725 201.07 166.884 198.587 163.38 198.587L163.38 198.587L144.345 198.587C 140.841 198.588 138 201.07 138 204.132z" stroke="none" fill="#FFFFFF" fill-rule="nonzero" />
</g>
</svg>